<svg id="Capa_1" data-name="Capa 1" xmlns="http://www.w3.org/2000/svg" viewBox="0 0 1040 178"><defs><style>.cls-1{fill:#e15200;}</style></defs><title>Logomkt</title><path d="M581.12,100.8q0,17.82-11.45,29.5T540.52,142H495.09V61.39h45.43q17.82,0,29.21,10.86T581.12,100.8Zm-14,1.18q0-11.67-7.49-19.11t-19.06-7.44H509v52.51h31.5q11.57,0,19.06-7.19T567.07,102Z"/><path d="M608.85,142H594.8V61.39h14.05Z"/><path d="M717.76,142H666.55Q649,142,637.46,130.3T626,100.8q0-17.7,11.38-28.55t29.21-10.86h45.54v14H666.55q-11.56,0-19.06,7.44T640,102q0,11.56,7.49,18.77t19.06,7.19h37.17V110.36H665.49V97.5h52.27Z"/><path d="M746.79,142h-14V61.39h14Z"/><path d="M838.47,75.43H806.73V142H792.81V75.43H761v-14h77.52Z"/><path d="M925.79,142l-18-.12-13.57-22.54H855.93l8.5-13.92h21.36l-14-23.25L835.4,141.87h-18l43.78-72.81a18.71,18.71,0,0,1,4.6-5.19q3.54-2.71,6.37-2.71a10.41,10.41,0,0,1,6.37,2.59,18.84,18.84,0,0,1,4.61,5.31Z"/><path d="M998.48,142H929V61.39h14v66.55h55.46Z"/><path class="cls-1" d="M45.49,38.71H148a60.51,60.51,0,0,1,20.8,3.43,47.36,47.36,0,0,1,16.14,9.64A43.46,43.46,0,0,1,195.36,66.6a47.37,47.37,0,0,1,3.72,19v55.33H174.26V89.81q0-27-26.28-27H70.16v78.11H45.49Zm62.63,36.65h25v65.55h-25Z"/><path class="cls-1" d="M243,140.91H218.21V38.71H243V78.42h38.84l34.75-39.71h31.1l-36.5,40.74q18.09,3.49,28.1,16.06t10,33.57v11.83h-25V128.5q0-27.15-26.72-27.15H243Z"/><path class="cls-1" d="M491.66,62.8h-47v78.11H419.83V62.8H402.6q-16.2,0-17.52,15.62h-23.5q3.21-39.7,45-39.71h85.12Z"/></svg>