<svg id="Capa_1" data-name="Capa 1" xmlns="http://www.w3.org/2000/svg" viewBox="0 0 848.23 94.63"><defs><style>.cls-1{fill:#211915;}.cls-2{fill:#e5b100;}</style></defs><title>logotecnomedios</title><path class="cls-1" d="M25,38H0V22.77H68.79V38h-25v55.2H25Z"/><path class="cls-1" d="M137.86,64.77h-46V78h46.34V93.19H73V22.77h65V38H91.91v13.2h46Z"/><path class="cls-1" d="M207.32,93.19H174.47a59.67,59.67,0,0,1-13.68-1.4A20.22,20.22,0,0,1,151,86.54a23.79,23.79,0,0,1-5.83-10.69Q143.26,69,143.26,58t1.92-17.83A24.15,24.15,0,0,1,151,29.46a20,20,0,0,1,9.78-5.3,59.71,59.71,0,0,1,13.68-1.39h32.85V38.28H174.57a18.68,18.68,0,0,0-6,.82,7.49,7.49,0,0,0-3.9,3,15.67,15.67,0,0,0-2.17,6.07,58.76,58.76,0,0,0-.67,9.83,58.71,58.71,0,0,0,.67,9.82,15.17,15.17,0,0,0,2.17,6,7.58,7.58,0,0,0,3.95,3,18.74,18.74,0,0,0,5.93.82h32.75Z"/><path class="cls-1" d="M271.67,72.67V22.77h17.44V93.19H266.18L231.89,45V93.19H214.35V22.77H236.7Z"/><path class="cls-1" d="M332.94,94.63q-11.65,0-19-2a23.64,23.64,0,0,1-11.41-6.36A23.32,23.32,0,0,1,297,75a81.63,81.63,0,0,1-1.49-17A81.89,81.89,0,0,1,297,41.12a23.36,23.36,0,0,1,5.59-11.37A23.64,23.64,0,0,1,314,23.39q7.32-2,19-2t19,2a23.67,23.67,0,0,1,11.42,6.36,23.45,23.45,0,0,1,5.59,11.37A82.59,82.59,0,0,1,370.42,58a82.33,82.33,0,0,1-1.49,17,23.4,23.4,0,0,1-5.59,11.32,23.67,23.67,0,0,1-11.42,6.36Q344.6,94.64,332.94,94.63Zm0-57.61a36.89,36.89,0,0,0-9.77,1.06,11.15,11.15,0,0,0-5.74,3.52,13.45,13.45,0,0,0-2.69,6.5,61.64,61.64,0,0,0-.68,9.93,61.6,61.6,0,0,0,.68,9.92,13.41,13.41,0,0,0,2.69,6.5A11.15,11.15,0,0,0,323.17,78a45.6,45.6,0,0,0,19.55,0,11.12,11.12,0,0,0,5.73-3.52,13.51,13.51,0,0,0,2.7-6.5,61.6,61.6,0,0,0,.68-9.92,61.64,61.64,0,0,0-.68-9.93,13.56,13.56,0,0,0-2.7-6.5,11.12,11.12,0,0,0-5.73-3.52A36.92,36.92,0,0,0,332.94,37Z"/><path class="cls-2" d="M413.19,93.19,394,46.47V93.19H376.78V22.77h25.14l20.52,50.29,21.1-50.29H468.3V93.19H451.05V46.66L431.69,93.19Z"/><path class="cls-2" d="M542.38,64.77H496.43V78h46.34V93.19H477.55V22.77h65V38H496.43v13.2h45.95Z"/><path class="cls-2" d="M550.67,22.77H591.9a59,59,0,0,1,13.63,1.39,20,20,0,0,1,9.73,5.3,24.49,24.49,0,0,1,5.88,10.74q2,6.84,2,17.83t-2,17.82a24.13,24.13,0,0,1-5.88,10.69,20.19,20.19,0,0,1-9.73,5.25,59,59,0,0,1-13.63,1.4H550.67Zm18.88,54.91h22.26a18.19,18.19,0,0,0,6-.87,8,8,0,0,0,3.95-3,14.77,14.77,0,0,0,2.11-6,61.71,61.71,0,0,0,.63-9.77,58.76,58.76,0,0,0-.67-9.83,15.67,15.67,0,0,0-2.17-6.07,7.49,7.49,0,0,0-3.95-3,18.72,18.72,0,0,0-5.92-.82H569.55Z"/><path class="cls-2" d="M648.35,22.77V93.19H629.47V22.77Z"/><path class="cls-2" d="M692.19,94.63q-11.66,0-19-2a23.67,23.67,0,0,1-11.42-6.36A23.31,23.31,0,0,1,656.21,75a81.56,81.56,0,0,1-1.5-17,81.82,81.82,0,0,1,1.5-16.91,23.35,23.35,0,0,1,5.58-11.37,23.67,23.67,0,0,1,11.42-6.36q7.32-2,19-2t19,2a23.64,23.64,0,0,1,11.41,6.36,23.45,23.45,0,0,1,5.59,11.37A82.59,82.59,0,0,1,729.66,58a82.33,82.33,0,0,1-1.49,17,23.4,23.4,0,0,1-5.59,11.32,23.64,23.64,0,0,1-11.41,6.36Q703.84,94.64,692.19,94.63Zm0-57.61a36.92,36.92,0,0,0-9.78,1.06,11.16,11.16,0,0,0-5.73,3.52,13.56,13.56,0,0,0-2.7,6.5,61.77,61.77,0,0,0-.67,9.93A61.72,61.72,0,0,0,674,68a13.51,13.51,0,0,0,2.7,6.5A11.16,11.16,0,0,0,682.41,78,45.65,45.65,0,0,0,702,78a11.16,11.16,0,0,0,5.73-3.52,13.51,13.51,0,0,0,2.7-6.5,62.9,62.9,0,0,0,.67-9.92,63,63,0,0,0-.67-9.93,13.56,13.56,0,0,0-2.7-6.5A11.16,11.16,0,0,0,702,38.08,37,37,0,0,0,692.19,37Z"/><path class="cls-2" d="M753.84,64.87a32.9,32.9,0,0,1-10-1.3,14.49,14.49,0,0,1-6.4-4A15.23,15.23,0,0,1,734,53a38.86,38.86,0,0,1-1-9.39,37.87,37.87,0,0,1,1-9.11,14.72,14.72,0,0,1,3.32-6.5,14.22,14.22,0,0,1,6.36-3.9,33.29,33.29,0,0,1,10.16-1.3h45v15.8H757.7c-2.19,0-3.71.48-4.58,1.44s-1.3,2.57-1.3,4.82.43,3.84,1.3,4.77S755.51,51,757.7,51h22.73a33.62,33.62,0,0,1,10,1.26,14,14,0,0,1,6.36,3.85,15.13,15.13,0,0,1,3.37,6.55,37.29,37.29,0,0,1,1,9.25,40.17,40.17,0,0,1-1,9.3,14,14,0,0,1-9.73,10.64,31.42,31.42,0,0,1-10,1.35H733.71V77.49h43q3.17,0,4.52-1.5c.9-1,1.35-2.65,1.35-5s-.46-4.08-1.4-4.91a6.56,6.56,0,0,0-4.47-1.25Z"/><path class="cls-1" d="M831.74,0a16.92,16.92,0,0,1,8.11,2.13A15.13,15.13,0,0,1,846,8.24a16.6,16.6,0,0,1,0,16.48A15.41,15.41,0,0,1,840,30.83a16.57,16.57,0,0,1-16.43,0,15.48,15.48,0,0,1-6.11-6.11,16.5,16.5,0,0,1,0-16.48,15.21,15.21,0,0,1,6.18-6.11A17,17,0,0,1,831.74,0Zm0,2.73A14,14,0,0,0,825,4.52a12.74,12.74,0,0,0-5.15,5.09,13.75,13.75,0,0,0,0,13.74,13,13,0,0,0,5.11,5.1,13.8,13.8,0,0,0,13.7,0,12.94,12.94,0,0,0,5.09-5.1,13.78,13.78,0,0,0,0-13.74,12.68,12.68,0,0,0-5.15-5.09A14.08,14.08,0,0,0,831.74,2.73ZM824.5,25.64V7.87h6.1a14.79,14.79,0,0,1,4.53.5,4.41,4.41,0,0,1,2.23,1.71,4.61,4.61,0,0,1,.83,2.61,4.71,4.71,0,0,1-1.39,3.39,5.49,5.49,0,0,1-3.68,1.62,4.81,4.81,0,0,1,1.51.94,20.71,20.71,0,0,1,2.62,3.52l2.17,3.48h-3.5l-1.58-2.8a14.69,14.69,0,0,0-3-4.14,3.77,3.77,0,0,0-2.3-.61h-1.69v7.55Zm2.86-10h3.48a5.64,5.64,0,0,0,3.4-.74,2.41,2.41,0,0,0,.91-2,2.32,2.32,0,0,0-.44-1.41,2.53,2.53,0,0,0-1.21-.93,8.84,8.84,0,0,0-2.88-.31h-3.26Z"/></svg>