<svg id="Layer_1" data-name="Layer 1" xmlns="http://www.w3.org/2000/svg" xmlns:xlink="http://www.w3.org/1999/xlink" viewBox="0 0 512 512"><defs><style>.cls-1{fill:url(#Degradado_sin_nombre_102);}.cls-2{fill:url(#Degradado_sin_nombre_86);}.cls-3{fill:url(#Degradado_sin_nombre_89);}.cls-4{fill:url(#Degradado_sin_nombre_104);}.cls-5{fill:#393644;}</style><radialGradient id="Degradado_sin_nombre_102" cx="251.22" cy="258.66" fx="417.350388346651" fy="120.46351103043236" r="255.1" gradientUnits="userSpaceOnUse"><stop offset="0" stop-color="#fff"/><stop offset="0.71" stop-color="#e8e8e8"/><stop offset="0.79" stop-color="#e5e5e5"/><stop offset="0.86" stop-color="#dbdbdb"/><stop offset="0.93" stop-color="#cacaca"/><stop offset="0.99" stop-color="#b2b2b2"/><stop offset="1" stop-color="#acacac"/></radialGradient><linearGradient id="Degradado_sin_nombre_86" x1="19.87" y1="198.51" x2="179.17" y2="290.49" gradientUnits="userSpaceOnUse"><stop offset="0" stop-color="#8a3320"/><stop offset="0.65" stop-color="#ff5000"/><stop offset="0.97" stop-color="#ff6200"/></linearGradient><linearGradient id="Degradado_sin_nombre_89" x1="207.76" y1="240.63" x2="347.48" y2="240.63" gradientUnits="userSpaceOnUse"><stop offset="0" stop-color="#ff5000"/><stop offset="0.97" stop-color="#ff6200"/></linearGradient><linearGradient id="Degradado_sin_nombre_104" x1="357.88" y1="191.13" x2="487.45" y2="265.93" gradientUnits="userSpaceOnUse"><stop offset="0.27" stop-color="#ff5000"/><stop offset="0.5" stop-color="#fe5000"/><stop offset="0.55" stop-color="#f84f02"/><stop offset="0.63" stop-color="#e84a06"/><stop offset="0.71" stop-color="#cc440e"/><stop offset="0.8" stop-color="#a63a18"/><stop offset="0.86" stop-color="#8a3320"/></linearGradient></defs><title>mkt</title><rect class="cls-1" x="-0.34" width="512" height="512" rx="256" ry="256"/><path class="cls-2" d="M29.43,186.17H138.65a64.29,64.29,0,0,1,22.17,3.66A50.4,50.4,0,0,1,178,200.09a46.32,46.32,0,0,1,11.13,15.8,50.52,50.52,0,0,1,4,20.22v59H166.66V240.63q0-28.78-28-28.79H55.72v83.24H29.43Zm66.74,39.05h26.61v69.86H96.17Z"/><path class="cls-3" d="M234.21,295.08H207.76V186.17h26.45v42.32H275.6l37-42.32h33.14l-38.9,43.41q19.29,3.73,29.95,17.11t10.66,35.79v12.6H320.87V281.86q0-29-28.47-28.94H234.21Z"/><path class="cls-4" d="M481.88,211.84h-50.1v83.24H405.33V211.84H387q-17.28,0-18.68,16.65H343.25q3.44-42.31,47.93-42.32h90.7Z"/><path class="cls-5" d="M169.8,338.42a22.29,22.29,0,0,1-6.29,16.23,21.52,21.52,0,0,1-16,6.42h-25V316.74h25q9.81,0,16.07,6T169.8,338.42Zm-7.72.65a14.05,14.05,0,0,0-14.61-14.61H130.14v28.89h17.33a14.54,14.54,0,0,0,10.49-4A13.69,13.69,0,0,0,162.08,339.07Z"/><path class="cls-5" d="M183.74,361.07H176V316.74h7.73Z"/><path class="cls-5" d="M239.69,361.07H211.52a21.51,21.51,0,0,1-16-6.42,22.2,22.2,0,0,1-6.33-16.23q0-9.74,6.26-15.71t16.07-6h25v7.72h-25a14.05,14.05,0,0,0-14.61,14.61A13.66,13.66,0,0,0,201,349.39a14.52,14.52,0,0,0,10.49,4H232v-9.67h-21V336.6h28.76Z"/><path class="cls-5" d="M253,361.07h-7.72V316.74H253Z"/><path class="cls-5" d="M300.81,324.46H283.35v36.61h-7.66V324.46H258.16v-7.72h42.65Z"/><path class="cls-5" d="M348.84,361.07l-9.93-.06-7.46-12.4h-21l4.67-7.66h11.75l-7.73-12.79-20,32.85h-9.93L313.27,321a10.53,10.53,0,0,1,2.53-2.86,6.05,6.05,0,0,1,3.51-1.49,5.75,5.75,0,0,1,3.5,1.43,10.12,10.12,0,0,1,2.54,2.92Z"/><path class="cls-5" d="M388.83,361.07H350.6V316.74h7.72v36.61h30.51Z"/></svg>